<svg xmlns="http://www.w3.org/2000/svg" enable-background="new 0 0 70 70" viewBox="0 0 70 70" id="cctv-camera"><path d="M67.42,24.76L22.76,4.11c-0.5-0.23-1.1-0.01-1.33,0.49l-5.64,12.2c-0.11,0.24-0.12,0.52-0.03,0.77
		c0.09,0.25,0.28,0.45,0.52,0.56l1.08,0.5l-1.92,4.15c-0.23,0.5-0.01,1.1,0.49,1.33l10,4.62c-0.6,2.33,0.39,4.82,2.47,6.1v8.83
		c-1.17,0.34-2.09,1.26-2.43,2.44H11.01v-7.53c0-1.95-1.59-3.54-3.54-3.54H4V29.2c0-0.55-0.45-1-1-1s-1,0.45-1,1v35.78
		c0,0.55,0.45,1,1,1s1-0.45,1-1v-5.83h3.47c1.95,0,3.54-1.59,3.54-3.54V48.1h14.95c0.44,1.49,1.8,2.59,3.43,2.59
		c1.98,0,3.59-1.61,3.59-3.59c0-1.63-1.1-3-2.59-3.44v-8.08c0.3,0.05,0.61,0.08,0.92,0.08c0.64,0,1.28-0.11,1.9-0.34
		c1.08-0.39,1.97-1.1,2.62-2.01l17.49,8.09c0.13,0.06,0.28,0.09,0.42,0.09c0.12,0,0.23-0.02,0.34-0.06
		c0.25-0.09,0.45-0.28,0.56-0.52l0.41-0.89c0.4,0.16,0.84,0.29,1.3,0.29c1.18,0,2.48-0.71,3.58-3.08c1.45-3.14,0.46-4.68-0.81-5.44
		l2,0.92c0.13,0.06,0.28,0.09,0.42,0.09c0.28,0,0.55-0.12,0.75-0.34l5.44-6.13c0.21-0.24,0.3-0.56,0.23-0.87
		C67.91,25.15,67.71,24.89,67.42,24.76z M9.01,55.62c0,0.85-0.69,1.54-1.54,1.54H4V37.03h3.47c0.85,0,1.54,0.69,1.54,1.54V55.62z
		 M30.99,47.1c0,0.88-0.72,1.59-1.59,1.59s-1.59-0.72-1.59-1.59c0-0.88,0.71-1.59,1.59-1.59S30.99,46.22,30.99,47.1z M32.53,33.45
		c-0.89,0.32-1.85,0.28-2.72-0.12c-1.46-0.68-2.23-2.22-2.01-3.73l6.16,2.85C33.58,32.89,33.1,33.24,32.53,33.45z M53.26,39.16
		L17.68,22.71l1.5-3.24l21.43,9.91c0.45,0.21,0.98,0.05,1.26-0.36c1.53-2.32,4.46-3.17,6.97-2l8.26,3.82l-3.44,7.44c0,0,0,0,0,0
		s0,0,0,0L53.26,39.16z M58.13,36.38c-0.97,2.1-1.71,2.04-2.23,1.83l2.19-4.74C58.59,33.74,59.11,34.26,58.13,36.38z M61.3,30.57
		L49.68,25.2c-1.03-0.48-2.12-0.71-3.19-0.71c-2.19,0-4.32,0.97-5.78,2.73l-21.6-9.99c0,0,0,0,0,0s0,0,0,0l-1.08-0.5l4.8-10.39
		l42.53,19.66L61.3,30.57z"></path><path d="M43.02 21.18l.93.43c.14.06.28.09.42.09.38 0 .74-.21.91-.58.23-.5.01-1.1-.49-1.33l-.93-.43c-.5-.23-1.1-.01-1.33.49C42.3 20.36 42.52 20.95 43.02 21.18zM24.36 12.56l14.6 6.75c.14.06.28.09.42.09.38 0 .74-.21.91-.58.23-.5.01-1.1-.49-1.33l-14.6-6.75c-.5-.23-1.1-.01-1.33.49C23.64 11.74 23.86 12.33 24.36 12.56z"></path></svg>