<svg xmlns="http://www.w3.org/2000/svg" version="1.1" xmlns:xlink="http://www.w3.org/1999/xlink" xmlns:svgjs="http://svgjs.dev/svgjs" width="1000" height="275" viewBox="0 0 1000 275"><g transform="matrix(1,0,0,1,-0.6060554885071383,-0.3938253881795788)"><svg viewBox="0 0 396 109" data-background-color="#333333" preserveAspectRatio="xMidYMid meet" height="275" width="1000" xmlns="http://www.w3.org/2000/svg" xmlns:xlink="http://www.w3.org/1999/xlink"><g id="tight-bounds" transform="matrix(1,0,0,1,0.24000202655122393,0.15609806295117323)"><svg viewBox="0 0 395.52 108.68780387409763" height="108.68780387409763" width="395.52"><g><svg viewBox="0 0 571.9382045555591 157.16703935284724" height="108.68780387409763" width="395.52"><g><rect width="6.468338427562575" height="157.16703935284724" x="153.017043019194" y="0" fill="#000000" opacity="1" stroke-width="0" stroke="transparent" fill-opacity="1" class="rect-o-0" data-fill-palette-color="primary" rx="1%" id="o-0" data-palette-color="#7fc37e"></rect></g><g transform="matrix(1,0,0,1,176.41820455555913,0.39096278445981625)"><svg viewBox="0 0 395.52 156.3851137839276" height="156.3851137839276" width="395.52"><g id="textblocktransform"><svg viewBox="0 0 395.52 156.3851137839276" height="156.3851137839276" width="395.52" id="textblock"><g><svg viewBox="0 0 395.52 156.3851137839276" height="156.3851137839276" width="395.52"><g transform="matrix(1,0,0,1,0,0)"><svg width="395.52" viewBox="4.199999809265137 -32.619998931884766 183.62001037597656 69.0999984741211" height="156.3851137839276" data-palette-color="#7fc37e"><svg></svg><svg></svg><g class="undefined-text-0" data-fill-palette-color="primary" id="text-0"><path xmlns="http://www.w3.org/2000/svg" d="M11.28 0h-2.32c-2.393 0-3.98 0.05-4.76 0.15v0-32.77c0.393 0.1 1.203 0.15 2.43 0.15 1.227 0 2.653-0.033 4.28-0.1v0 26.71h5.06c1.46 0 2.63-0.05 3.51-0.15v0c-0.113 3.813-0.17 5.793-0.17 5.94v0 0.24c-1.593-0.113-4.27-0.17-8.03-0.17zM29.74-7.03l-2.3 7.23c-1.4-0.133-3.037-0.2-4.91-0.2v0h-1.92l10.62-29.76c0.467-1.333 0.7-2.11 0.7-2.33 0-0.22-0.007-0.357-0.02-0.41v0l0.02-0.04c1.06 0.047 2.183 0.07 3.37 0.07v0c0.98 0 2.153-0.017 3.52-0.05v0l0.02 0.05c-0.033 0.067-0.05 0.157-0.05 0.27v0c0 0.307 0.247 1.127 0.74 2.46v0l10.84 29.81c-0.327-0.013-0.71-0.02-1.15-0.02v0c0 0-0.423-0.017-1.27-0.05v0c-0.407 0-0.773 0-1.1 0v0h-3.78l-2.3-7.03zM31.59-12.89h7.28l-3.69-11.35z" fill="#000000" fill-rule="nonzero" stroke="none" stroke-width="1" stroke-linecap="butt" stroke-linejoin="miter" stroke-miterlimit="10" stroke-dasharray="" stroke-dashoffset="0" font-family="none" font-weight="none" font-size="none" text-anchor="none" style="mix-blend-mode: normal" data-fill-palette-color="primary" opacity="1"></path><path xmlns="http://www.w3.org/2000/svg" d="M10.79 15.7v20.73c-0.78-0.1-2.287-0.15-4.52-0.15v0h-1.95v-32.57c1.04 0.067 2.187 0.1 3.44 0.1 1.253 0 2.14-0.067 2.66-0.2v0l8.21 13.94 7.88-13.94c0.52 0.133 1.513 0.2 2.98 0.2 1.467 0 2.72-0.033 3.76-0.1v0 32.57h-1.95c-2.233 0-3.74 0.05-4.52 0.15v0-21.88l-7.98 14.28zM42.53 36.28v-32.57c1.627 0.067 2.61 0.1 2.95 0.1v0h1.76c0.867 0 1.56-0.067 2.08-0.2v0l-0.03 32.67zM65.06 36.28h-6.37c0.1-0.553 0.15-1.157 0.15-1.81v0-30.66h4.88l12.94 20.36v-18.7c0-0.893-0.08-1.447-0.24-1.66v0h6.59c-0.08 0.653-0.12 1.37-0.12 2.15v0 30.32h-5.08l-12.75-19.56zM92.41 36.28v-32.57c1.627 0.067 2.61 0.1 2.95 0.1v0h1.76c0.86 0 1.55-0.067 2.07-0.2v0l-0.02 32.67zM114.72 30.42h9.96c1.013 0 1.713-0.097 2.1-0.29v0l0.1 0.02-0.24 6.13h-18.29v-32.64c0.44 0.033 0.927 0.057 1.46 0.07v0l1.71 0.05c1.14 0.033 2.377 0.05 3.71 0.05v0c3.733 0 7.42-0.067 11.06-0.2v0c-0.173 1.433-0.26 3.347-0.26 5.74v0c0 0.26 0.013 0.457 0.04 0.59v0l-0.04 0.07c-0.847-0.247-2.053-0.37-3.62-0.37v0h-7.69v6.23h5.79c1.787 0 2.86-0.05 3.22-0.15v0l0.07 6.03c-0.78-0.08-1.787-0.12-3.02-0.12v0h-6.06zM149.56 36.48l-5.66-12.82c-0.493 0.033-1.017 0.05-1.57 0.05-0.553 0-1.373-0.043-2.46-0.13v0 12.7h-6.47v-32.64c2.28-0.293 5.08-0.44 8.4-0.44v0c4.52 0 7.893 0.833 10.12 2.5 2.22 1.667 3.33 4.243 3.33 7.73v0c0 2.7-1.017 5.01-3.05 6.93v0c-0.667 0.62-1.433 1.157-2.3 1.61v0l4.98 10.5c0.98 2.167 1.73 3.453 2.25 3.86v0l-0.12 0.12c-1.58-0.26-4.063-0.25-7.45 0.03zM142.26 8.96v0c-0.827 0-1.623 0.04-2.39 0.12v0 9.33c0.793 0.113 1.73 0.17 2.81 0.17 1.073 0 1.977-0.093 2.71-0.28 0.727-0.187 1.36-0.477 1.9-0.87v0c1.153-0.86 1.73-2.153 1.73-3.88 0-1.727-0.6-2.94-1.8-3.64v0c-1.127-0.633-2.78-0.95-4.96-0.95zM167.19 29.25l-2.3 7.23c-1.4-0.133-3.033-0.2-4.9-0.2v0h-1.93l10.62-29.76c0.467-1.333 0.7-2.11 0.7-2.33 0-0.22-0.007-0.357-0.02-0.41v0l0.02-0.04c1.06 0.047 2.183 0.07 3.37 0.07v0c0.98 0 2.153-0.017 3.52-0.05v0l0.02 0.05c-0.027 0.067-0.04 0.157-0.04 0.27v0c0 0.307 0.243 1.127 0.73 2.46v0l10.84 29.81c-0.327-0.013-0.71-0.02-1.15-0.02v0c0 0-0.423-0.017-1.27-0.05v0c-0.407 0-0.773 0-1.1 0v0h-3.78l-2.3-7.03zM169.04 23.39h7.28l-3.69-11.35z" fill="#000000" fill-rule="nonzero" stroke="none" stroke-width="1" stroke-linecap="butt" stroke-linejoin="miter" stroke-miterlimit="10" stroke-dasharray="" stroke-dashoffset="0" font-family="none" font-weight="none" font-size="none" text-anchor="none" style="mix-blend-mode: normal" data-fill-palette-color="primary" opacity="1"></path></g></svg></g></svg></g></svg></g></svg></g><g transform="matrix(1,0,0,1,0,0.39096278445981625)"><svg viewBox="0 0 136.08421991039145 156.3851137839276" height="156.3851137839276" width="136.08421991039145"><g><svg xmlns="http://www.w3.org/2000/svg" xmlns:xlink="http://www.w3.org/1999/xlink" version="1.1" x="0" y="0" viewBox="10.838492393493652 4.997999668121338 78.32113647460938 90.00499725341797" enable-background="new 0 0 100 100" xml:space="preserve" height="156.3851137839276" width="136.08421991039145" class="icon-icon-0" data-fill-palette-color="accent" id="icon-0"><g fill="#fefee2" data-fill-palette-color="accent"><path fill="#000000" d="M88.996 84.989c-0.197-0.964-0.565-1.883-1.087-2.72L75.646 62.15c-0.023-0.039-0.048-0.075-0.075-0.111-1.898-3.634-5.477-6.081-9.503-6.549-0.113-0.024-0.23-0.042-0.398-0.062-0.059-0.008-0.115-0.012-0.174-0.012l-25.067 0.036c-0.002 0-0.004 0-0.006 0-2.896 0-5.256 2.317-5.259 5.16-0.008 1.3 0.491 2.549 1.458 3.57 0.87 0.823 2.08 1.359 3.595 1.597 2.45 0.381 11.824 2.174 11.917 2.192 0.729 0.131 1.415-0.334 1.554-1.054 0.137-0.72-0.334-1.415-1.054-1.554-0.387-0.073-9.514-1.82-12.008-2.207-0.961-0.15-1.716-0.462-2.128-0.848-0.442-0.471-0.685-1.067-0.681-1.688 0.002-1.388 1.171-2.515 2.612-2.515 0.001 0 0.002 0 0.003 0l24.957-0.039 0.246 0.037c3.289 0.387 6.229 2.433 7.674 5.338 0.051 0.101 0.114 0.194 0.188 0.276L85.65 83.661c0.36 0.58 0.611 1.206 0.746 1.859 0.475 2.335-0.61 4.74-2.698 5.987-2.754 1.644-6.354 0.816-8.067-1.842l-4.123-8.863c-0.865-1.467-2.301-2.529-3.955-2.937-0.086-0.03-0.175-0.053-0.268-0.065L39.27 73.856 15.067 63.03c-0.646-0.271-1.142-0.771-1.396-1.405-0.246-0.612-0.235-1.282 0.03-1.888 0.565-1.289 2.107-1.887 3.513-1.298l13.934 4.864c0.691 0.242 1.449-0.123 1.69-0.816 0.241-0.69-0.124-1.447-0.816-1.689l-13.858-4.835c-2.659-1.115-5.75 0.103-6.894 2.709-0.553 1.263-0.575 2.661-0.063 3.939 0.52 1.3 1.526 2.316 2.805 2.854l24.345 10.891c0.113 0.051 0.233 0.086 0.357 0.103l28.045 3.948c0.021 0.005 0.041 0.011 0.062 0.016 1.006 0.218 1.88 0.849 2.341 1.614l4.099 8.826c0.023 0.051 0.05 0.099 0.079 0.146 1.608 2.573 4.421 3.995 7.298 3.994 1.511 0 3.039-0.393 4.421-1.217C88.112 91.964 89.695 88.429 88.996 84.989z" data-fill-palette-color="accent"></path><path fill="#000000" d="M41.21 33.606v17.829c0 0.733 0.594 1.327 1.327 1.327 0.733 0 1.327-0.594 1.327-1.327v-7.635c2.459-0.042 9.19-0.58 13.568-4.958 5.337-5.335 4.972-14.104 4.953-14.476-0.033-0.681-0.58-1.226-1.26-1.261 0 0-0.196-0.01-0.55-0.01-2.103 0-9.321 0.357-13.926 4.963-1.197 1.197-2.094 2.569-2.786 3.978V6.325c0-0.732-0.594-1.327-1.327-1.327-0.732 0-1.327 0.595-1.327 1.327v15.516c-0.691-1.408-1.588-2.78-2.785-3.977-4.604-4.605-11.824-4.963-13.927-4.963-0.352 0-0.548 0.01-0.548 0.01-0.681 0.035-1.227 0.58-1.261 1.261-0.018 0.37-0.383 9.142 4.953 14.477C32.019 33.027 38.752 33.564 41.21 33.606zM48.525 29.937c3.413-3.413 8.707-4.061 11.193-4.167-0.111 2.432-0.757 7.791-4.163 11.197-3.412 3.412-8.708 4.059-11.192 4.165C44.475 38.701 45.12 33.341 48.525 29.937zM36.549 19.74c3.405 3.406 4.05 8.767 4.161 11.197-2.484-0.106-7.78-0.753-11.193-4.165-3.406-3.406-4.051-8.767-4.162-11.198C27.841 15.681 33.136 16.328 36.549 19.74z" data-fill-palette-color="accent"></path></g></svg></g></svg></g></svg></g><defs></defs></svg><rect width="395.52" height="108.68780387409763" fill="none" stroke="none" visibility="hidden"></rect></g></svg></g></svg>