<svg xmlns="http://www.w3.org/2000/svg" width="655.359" height="655.359" fill-rule="evenodd" clip-rule="evenodd" image-rendering="optimizeQuality" shape-rendering="geometricPrecision" text-rendering="geometricPrecision" viewBox="0 0 6.827 6.827" id="road-barrier"><path d="M2.05983 5.25424c-0.044122,0 -0.08,-0.0358346 -0.08,-0.08l0 -3.14278 -1.22537 0 0 3.14278c0,0.0441654 -0.035874,0.08 -0.0800472,0.08 -0.0441378,0 -0.08,-0.0358346 -0.08,-0.08l4.72441e-005 -3.22278c0,-0.0441654 0.0357835,-0.0799961 0.0799528,-0.0799961l1.38542 -3.93701e-006c0.044189,0 0.08,0.0358386 0.08,0.0800039l0 3.22278c0,0.0441654 -0.0358346,0.08 -0.08,0.08z"></path><path d="M2.05983 4.57548l-1.38537 0c-.044185 0-.0800472-.0358307-.0800472-.08.0000472441-.0441654.0358307-.08.08-.08l1.38542 0c.044189 0 .08.0358346.08.08 0 .0441693-.0358346.08-.08.08zM.506516 5.56091l1.72125 0 0-.306669-1.72125 0 0 .306669zm1.80125.159996l-1.88125 0c-.044189 0-.0800236-.0358307-.0800236-.0799961l.000023622-.466669c0-.0441654.035811-.08.0799685-.08l1.88128 0c.044185 0 .0799685.0358346.0799685.08l.0000314961.466669c0 .0441654-.0358622.0799961-.08.0799961zM1.70802 2.03146c-.044126 0-.08-.0358307-.08-.0799961l0-.424728c0-.143886-.117087-.260965-.260835-.260965-.143854-.00000393701-.260969.117083-.260969.260969l.0000551181.42472c0 .0441654-.035752.0800039-.0800551.0800039-.0441339-.00000393701-.08-.0358346-.08-.08l.0000551181-.424728c0-.232083.188835-.420965.420913-.420965.232087-.00000393701.420843.188886.420843.420969l.0000551181.42472c0 .0441654-.0358898.0800039-.080063.08zM6.40015 3.31493l-4.34032 0c-.044122 0-.08-.0358307-.08-.08 0-.0441654.0358307-.08.0799921-.08l4.26033 0 0-.595276-4.26032 0c-.044122 0-.08-.0358346-.08-.08 0-.0441654.0358307-.08.0799921-.08l4.34033 0c.0443071 0 .0799528.0358346.0799528.08l.0000472441.755276c0 .0441693-.0357402.08-.08.08z"></path><path d="M2.49595 3.31493c-.027626 0-.0544606-.0142992-.0693189-.0399961l-.436055-.755283c-.022126-.0383307-.00909449-.0872165.029248-.109299.038378-.0220866.0872205-.00902756.109307.0293031l.436134.755276c.0220591.0383346.00886614.0872244-.0293307.109307-.0126102.00722047-.0263898.0106929-.0399843.0106929zM3.05377 3.31493c-.027689 0-.0546417-.0142992-.0693622-.0399961l-.436079-.755283c-.0220591-.0383307-.00905906-.0872165.0292756-.109299.0383504-.0220866.0872165-.00902756.109303.0293031l.435984.755276c.022126.0383346.00901575.0872244-.0291772.109307-.0126339.00722047-.0263937.0106929-.0399449.0106929zM3.61152 3.31493c-.027622 0-.0546142-.0142992-.0693228-.0399961l-.436114-.755283c-.022063-.0383307-.0090315-.0872165.0292953-.109299.0382047-.0220866.0870866-.00902756.109315.0293031l.436016.755276c.022063.0383346.00898425.0872244-.0293543.109307-.0124646.00722047-.0262441.0106929-.0398346.0106929zM4.16926 3.31493c-.027622 0-.0545748-.0142992-.0694488-.0399961l-.435921-.755283c-.022252-.0383307-.00907087-.0872165.0291181-.109299.038378-.0220866.0872283-.00902756.109307.0293031l.436134.755276c.022126.0383346.00901575.0872244-.0293307.109307-.0126063.00722047-.026378.0106929-.0398583.0106929zM4.72707 3.31493c-.027811 0-.0546142-.0142992-.0694724-.0399961l-.436087-.755283c-.022063-.0383307-.00891339-.0872165.0292756-.109299.0383465-.0220866.0872283-.00902756.109307.0293031l.436173.755276c.0220551.0383346.00883465.0872244-.0293701.109307-.0126299.00722047-.026378.0106929-.0398268.0106929zM5.2847 3.31493c-.0276299 0-.0544646-.0142992-.0693228-.0399961l-.436118-.755283c-.022063-.0383307-.00888189-.0872165.029315-.109299.0383701-.0220866.0872205-.00902756.109299.0293031l.436142.755276c.022063.0383346.00885039.0872244-.0293386.109307-.0125984.00722047-.0263858.0106929-.0399764.0106929zM5.84252 3.31493c-.0276929 0-.0544961-.0142992-.0693622-.0399961l-.436079-.755283c-.022063-.0383307-.00905512-.0872165.0292756-.109299.0382283-.0220866.0872205-.00902756.109307.0293031l.435984.755276c.022252.0383346.00901575.0872244-.0291811.109307-.0126299.00722047-.0263937.0106929-.0399449.0106929zM6.40027 3.31493c-.0276299 0-.0546142-.0142992-.0693386-.0399961l-.43611-.755283c-.0220551-.0383307-.00902362-.0872165.0293071-.109299.0381969-.0220866.0870866-.00902756.109307.0293031l.436016.755276c.022063.0383346.00898425.0872244-.0293543.109307-.0124567.00722047-.026252.0106929-.0398268.0106929zM1.3672 2.68298c-.096126 0-.174469.0781969-.174469.174307.0000314961.0961142.0783346.174307.174445.174307.0961457 0 .174311-.0781929.174311-.174307.000023622-.0961102-.0782047-.174307-.174287-.174307zm0 .508614c-.184437 0-.334323-.15-.334323-.334307.00000787402-.184307.149862-.334307.334299-.334307.184335 0 .334311.150004.334311.334307.000023622.184307-.150008.334307-.334287.334307z"></path><rect width="6.827" height="6.827" fill="none"></rect></svg>