<svg xmlns="http://www.w3.org/2000/svg" enable-background="new 0 0 48 48" viewBox="0 0 48 48" id="traffic-light"><path d="M30 12c0-3.31-2.69-6-6-6s-6 2.69-6 6 2.69 6 6 6S30 15.31 30 12zM24 16c-2.21 0-4-1.79-4-4s1.79-4 4-4 4 1.79 4 4S26.21 16 24 16zM30 24c0-3.31-2.69-6-6-6s-6 2.69-6 6 2.69 6 6 6S30 27.31 30 24zM24 28c-2.21 0-4-1.79-4-4 0-2.21 1.79-4 4-4s4 1.79 4 4C28 26.21 26.21 28 24 28zM18 36c0 3.31 2.69 6 6 6s6-2.69 6-6-2.69-6-6-6S18 32.69 18 36zM24 32c2.21 0 4 1.79 4 4s-1.79 4-4 4-4-1.79-4-4S21.79 32 24 32z"></path><path d="M11,39h2v3c0,1.65,1.35,3,3,3h16c1.65,0,3-1.35,3-3v-3h2c0.55,0,1-0.45,1-1v-4c0-0.55-0.45-1-1-1h-2v-6h2
		c0.55,0,1-0.45,1-1v-4c0-0.55-0.45-1-1-1h-2v-6h2c0.55,0,1-0.45,1-1v-4c0-0.55-0.45-1-1-1h-2V6c0-1.65-1.35-3-3-3H16
		c-1.65,0-3,1.35-3,3v3h-2c-0.55,0-1,0.45-1,1v4c0,0.55,0.45,1,1,1h2v6h-2c-0.55,0-1,0.45-1,1v4c0,0.55,0.45,1,1,1h2v6h-2
		c-0.55,0-1,0.45-1,1v4C10,38.55,10.45,39,11,39z M35,11h1v2h-1V11z M35,23h1v2h-1V23z M35,35h1v2h-1V35z M15,6c0-0.55,0.45-1,1-1
		h16c0.55,0,1,0.45,1,1v36c0,0.55-0.45,1-1,1H16c-0.55,0-1-0.45-1-1V6z M12,13v-2h1v2H12z M12,25v-2h1v2H12z M12,35h1v2h-1V35z"></path></svg>