<svg xmlns="http://www.w3.org/2000/svg" width="64" height="64" enable-background="new" viewBox="0 0 64 64" id="video-doorbell"><path style="font-feature-settings:normal;font-variant-alternates:normal;font-variant-caps:normal;font-variant-east-asian:normal;font-variant-ligatures:normal;font-variant-numeric:normal;font-variant-position:normal;font-variation-settings:normal;inline-size:0;isolation:auto;mix-blend-mode:normal;shape-margin:0;shape-padding:0;text-decoration-color:#000;text-decoration-line:none;text-decoration-style:solid;text-indent:0;text-orientation:mixed;text-transform:none" d="m21 4c-4.9587 0-9 4.0413-9 9v27c0 11.034 8.9662 20 20 20s20-8.9662 20-20v-27c0-4.9587-4.0413-9-9-9h-22zm1 2h20v17c0 3.8778-3.1222 7-7 7h-6c-3.8778 0-7-3.1222-7-7v-17zm-2 0.078125v16.922c0 4.9587 4.0413 9 9 9h6c4.9587 0 9-4.0413 9-9v-16.922c3.3993 0.48384 6 3.3848 6 6.9219v27c0 9.953-8.047 18-18 18s-18-8.047-18-18v-27c0-3.5371 2.6007-6.438 6-6.9219z" color="#000" paint-order="fill markers stroke"></path><path style="font-feature-settings:normal;font-variant-alternates:normal;font-variant-caps:normal;font-variant-east-asian:normal;font-variant-ligatures:normal;font-variant-numeric:normal;font-variant-position:normal;font-variation-settings:normal;inline-size:0;isolation:auto;mix-blend-mode:normal;shape-margin:0;shape-padding:0;text-decoration-color:#000;text-decoration-line:none;text-decoration-style:solid;text-indent:0;text-orientation:mixed;text-transform:none" d="m31 22a1 1 0 0 0-1 1 1 1 0 0 0 1 1h2a1 1 0 0 0 1-1 1 1 0 0 0-1-1h-2z" color="#000"></path><path style="font-feature-settings:normal;font-variant-alternates:normal;font-variant-caps:normal;font-variant-east-asian:normal;font-variant-ligatures:normal;font-variant-numeric:normal;font-variant-position:normal;font-variation-settings:normal;inline-size:0;isolation:auto;mix-blend-mode:normal;shape-margin:0;shape-padding:0;text-decoration-color:#000;text-decoration-line:none;text-decoration-style:solid;text-indent:0;text-orientation:mixed;text-transform:none" d="m32 16c-1.9627 0-3.7489 1.1526-4.5566 2.9414a1 1 0 0 0 0.5 1.3242 1 1 0 0 0 1.3223-0.5c0.4863-1.0769 1.5527-1.7656 2.7344-1.7656 1.1818 0 2.2482 0.68842 2.7344 1.7656a1 1 0 0 0 1.3223 0.5 1 1 0 0 0 0.5-1.3223c-0.80755-1.7892-2.5936-2.9434-4.5566-2.9434z" color="#000" paint-order="fill markers stroke"></path><path style="font-feature-settings:normal;font-variant-alternates:normal;font-variant-caps:normal;font-variant-east-asian:normal;font-variant-ligatures:normal;font-variant-numeric:normal;font-variant-position:normal;font-variation-settings:normal;inline-size:0;isolation:auto;mix-blend-mode:normal;shape-margin:0;shape-padding:0;text-decoration-color:#000;text-decoration-line:none;text-decoration-style:solid;text-indent:0;text-orientation:mixed;text-transform:none" d="M32 12c-2.9453 0-5.7069 1.4433-7.3887 3.8613a1 1 0 0 0 .25 1.3926 1 1 0 0 0 1.3926-.25c1.3091-1.8822 3.4534-3.0039 5.7461-3.0039 2.2929 0 4.437 1.1214 5.7461 3.0039a1 1 0 0 0 1.3926.25 1 1 0 0 0 .25-1.3926c-1.6817-2.4184-4.443-3.8613-7.3887-3.8613zM32 35c-4.4064 0-8 3.5936-8 8s3.5936 8 8 8 8-3.5936 8-8-3.5936-8-8-8zm0 2c3.3256 0 6 2.6744 6 6s-2.6744 6-6 6-6-2.6744-6-6 2.6744-6 6-6zM21.078 37.051a1 1 0 0 0-.73438.29297c-1.4466 1.4466-2.3438 3.453-2.3438 5.6562s.89716 4.2097 2.3438 5.6562a1 1 0 0 0 1.4141 0 1 1 0 0 0 0-1.4141c-1.0869-1.0869-1.7578-2.5794-1.7578-4.2422s.6709-3.1553 1.7578-4.2422a1 1 0 0 0 0-1.4141 1 1 0 0 0-.67969-.29297zM42.979 37.051a1 1 0 0 0-.73633.29297 1 1 0 0 0 0 1.4141c1.0869 1.0869 1.7578 2.5794 1.7578 4.2422s-.6709 3.1553-1.7578 4.2422a1 1 0 0 0 0 1.4141 1 1 0 0 0 1.4141 0c1.4466-1.4466 2.3438-3.453 2.3438-5.6562s-.89716-4.2097-2.3438-5.6562a1 1 0 0 0-.67773-.29297z" color="#000" paint-order="fill markers stroke"></path><path style="font-feature-settings:normal;font-variant-alternates:normal;font-variant-caps:normal;font-variant-east-asian:normal;font-variant-ligatures:normal;font-variant-numeric:normal;font-variant-position:normal;font-variation-settings:normal;inline-size:0;isolation:auto;mix-blend-mode:normal;shape-margin:0;shape-padding:0;text-decoration-color:#000;text-decoration-line:none;text-decoration-style:solid;text-indent:0;text-orientation:mixed;text-transform:none" d="m32 40c-1.645 0-3 1.355-3 3s1.355 3 3 3 3-1.355 3-3-1.355-3-3-3zm0 2c0.56413 0 1 0.43587 1 1s-0.43587 1-1 1-1-0.43587-1-1 0.43587-1 1-1z" color="#000" paint-order="fill markers stroke"></path></svg>